<svg xmlns="http://www.w3.org/2000/svg" width="220" height="48" viewBox="0 0 220 48" role="img" aria-label="trend"><path d="M4.0,44.0 L4.0,44.0 L15.78,44.0 L27.56,44.0 L39.33,44.0 L51.11,38.29 L62.89,35.43 L74.67,38.29 L86.44,35.43 L98.22,32.57 L110.0,32.57 L121.78,32.57 L133.56,32.57 L145.33,18.29 L157.11,15.43 L168.89,12.57 L180.67,12.57 L192.44,9.71 L204.22,9.71 L216.0,4.0 L216.0,44.0 Z" fill="#2f9e631f"/><path d="M4.0,44.0 L15.78,44.0 L27.56,44.0 L39.33,44.0 L51.11,38.29 L62.89,35.43 L74.67,38.29 L86.44,35.43 L98.22,32.57 L110.0,32.57 L121.78,32.57 L133.56,32.57 L145.33,18.29 L157.11,15.43 L168.89,12.57 L180.67,12.57 L192.44,9.71 L204.22,9.71 L216.0,4.0" fill="none" stroke="#2f9e63" stroke-width="2" stroke-linejoin="round" stroke-linecap="round"/><circle cx="216.0" cy="4.0" r="2.6" fill="#2f9e63"/></svg>