<svg xmlns="http://www.w3.org/2000/svg" width="220" height="48" viewBox="0 0 220 48" role="img" aria-label="trend"><path d="M4.0,44.0 L4.0,44.0 L9.44,43.23 L14.87,42.26 L20.31,40.66 L25.74,38.65 L31.18,37.38 L36.62,36.67 L42.05,35.79 L47.49,34.49 L52.92,33.36 L58.36,32.57 L63.79,31.47 L69.23,30.26 L74.67,29.58 L80.1,28.99 L85.54,28.49 L90.97,27.69 L96.41,26.78 L101.85,25.3 L107.28,24.68 L112.72,24.09 L118.15,22.38 L123.59,21.31 L129.03,17.65 L134.46,14.61 L139.9,13.57 L145.33,12.63 L150.77,11.65 L156.21,11.06 L161.64,10.5 L167.08,9.67 L172.51,9.41 L177.95,8.9 L183.38,8.08 L188.82,6.98 L194.26,6.1 L199.69,5.33 L205.13,4.86 L210.56,4.5 L216.0,4.0 L216.0,44.0 Z" fill="#2f9e631f"/><path d="M4.0,44.0 L9.44,43.23 L14.87,42.26 L20.31,40.66 L25.74,38.65 L31.18,37.38 L36.62,36.67 L42.05,35.79 L47.49,34.49 L52.92,33.36 L58.36,32.57 L63.79,31.47 L69.23,30.26 L74.67,29.58 L80.1,28.99 L85.54,28.49 L90.97,27.69 L96.41,26.78 L101.85,25.3 L107.28,24.68 L112.72,24.09 L118.15,22.38 L123.59,21.31 L129.03,17.65 L134.46,14.61 L139.9,13.57 L145.33,12.63 L150.77,11.65 L156.21,11.06 L161.64,10.5 L167.08,9.67 L172.51,9.41 L177.95,8.9 L183.38,8.08 L188.82,6.98 L194.26,6.1 L199.69,5.33 L205.13,4.86 L210.56,4.5 L216.0,4.0" fill="none" stroke="#2f9e63" stroke-width="2" stroke-linejoin="round" stroke-linecap="round"/><circle cx="216.0" cy="4.0" r="2.6" fill="#2f9e63"/></svg>