<svg xmlns="http://www.w3.org/2000/svg" width="220" height="48" viewBox="0 0 220 48" role="img" aria-label="trend"><path d="M4.0,44.0 L4.0,44.0 L8.82,41.84 L13.64,41.84 L18.45,39.68 L23.27,37.51 L28.09,34.27 L32.91,33.19 L37.73,33.19 L42.55,32.11 L47.36,33.19 L52.18,32.11 L57.0,29.95 L61.82,27.78 L66.64,27.78 L71.45,24.54 L76.27,23.46 L81.09,22.38 L85.91,22.38 L90.73,20.22 L95.55,20.22 L100.36,20.22 L105.18,19.14 L110.0,19.14 L114.82,20.22 L119.64,20.22 L124.45,20.22 L129.27,20.22 L134.09,19.14 L138.91,19.14 L143.73,16.97 L148.55,14.81 L153.36,13.73 L158.18,12.65 L163.0,13.73 L167.82,11.57 L172.64,10.49 L177.45,9.41 L182.27,9.41 L187.09,9.41 L191.91,9.41 L196.73,8.32 L201.55,6.16 L206.36,6.16 L211.18,4.0 L216.0,7.24 L216.0,44.0 Z" fill="#2f9e631f"/><path d="M4.0,44.0 L8.82,41.84 L13.64,41.84 L18.45,39.68 L23.27,37.51 L28.09,34.27 L32.91,33.19 L37.73,33.19 L42.55,32.11 L47.36,33.19 L52.18,32.11 L57.0,29.95 L61.82,27.78 L66.64,27.78 L71.45,24.54 L76.27,23.46 L81.09,22.38 L85.91,22.38 L90.73,20.22 L95.55,20.22 L100.36,20.22 L105.18,19.14 L110.0,19.14 L114.82,20.22 L119.64,20.22 L124.45,20.22 L129.27,20.22 L134.09,19.14 L138.91,19.14 L143.73,16.97 L148.55,14.81 L153.36,13.73 L158.18,12.65 L163.0,13.73 L167.82,11.57 L172.64,10.49 L177.45,9.41 L182.27,9.41 L187.09,9.41 L191.91,9.41 L196.73,8.32 L201.55,6.16 L206.36,6.16 L211.18,4.0 L216.0,7.24" fill="none" stroke="#2f9e63" stroke-width="2" stroke-linejoin="round" stroke-linecap="round"/><circle cx="216.0" cy="7.24" r="2.6" fill="#2f9e63"/></svg>