<svg xmlns="http://www.w3.org/2000/svg" width="220" height="48" viewBox="0 0 220 48" role="img" aria-label="trend"><path d="M4.0,44.0 L4.0,44.0 L15.78,43.32 L27.56,39.81 L39.33,39.5 L51.11,37.82 L62.89,37.53 L74.67,33.5 L86.44,33.29 L98.22,32.72 L110.0,27.77 L121.78,27.32 L133.56,21.24 L145.33,20.36 L157.11,19.46 L168.89,11.96 L180.67,11.6 L192.44,12.23 L204.22,11.84 L216.0,4.0 L216.0,44.0 Z" fill="#2f9e631f"/><path d="M4.0,44.0 L15.78,43.32 L27.56,39.81 L39.33,39.5 L51.11,37.82 L62.89,37.53 L74.67,33.5 L86.44,33.29 L98.22,32.72 L110.0,27.77 L121.78,27.32 L133.56,21.24 L145.33,20.36 L157.11,19.46 L168.89,11.96 L180.67,11.6 L192.44,12.23 L204.22,11.84 L216.0,4.0" fill="none" stroke="#2f9e63" stroke-width="2" stroke-linejoin="round" stroke-linecap="round"/><circle cx="216.0" cy="4.0" r="2.6" fill="#2f9e63"/></svg>