<svg xmlns="http://www.w3.org/2000/svg" width="220" height="48" viewBox="0 0 220 48" role="img" aria-label="trend"><path d="M4.0,44.0 L4.0,44.0 L11.85,42.32 L19.7,40.75 L27.56,38.45 L35.41,36.36 L43.26,34.26 L51.11,33.53 L58.96,31.12 L66.81,29.24 L74.67,28.71 L82.52,27.35 L90.37,28.29 L98.22,25.88 L106.07,24.73 L113.93,21.28 L121.78,19.71 L129.63,20.34 L137.48,18.66 L145.33,15.94 L153.19,15.52 L161.04,14.05 L168.89,13.32 L176.74,11.33 L184.59,10.39 L192.44,7.98 L200.3,6.51 L208.15,4.73 L216.0,4.0 L216.0,44.0 Z" fill="#2f9e631f"/><path d="M4.0,44.0 L11.85,42.32 L19.7,40.75 L27.56,38.45 L35.41,36.36 L43.26,34.26 L51.11,33.53 L58.96,31.12 L66.81,29.24 L74.67,28.71 L82.52,27.35 L90.37,28.29 L98.22,25.88 L106.07,24.73 L113.93,21.28 L121.78,19.71 L129.63,20.34 L137.48,18.66 L145.33,15.94 L153.19,15.52 L161.04,14.05 L168.89,13.32 L176.74,11.33 L184.59,10.39 L192.44,7.98 L200.3,6.51 L208.15,4.73 L216.0,4.0" fill="none" stroke="#2f9e63" stroke-width="2" stroke-linejoin="round" stroke-linecap="round"/><circle cx="216.0" cy="4.0" r="2.6" fill="#2f9e63"/></svg>